<?xml version="1.0" encoding="UTF-8"?>
<svg id="Layer_1" data-name="Layer 1" xmlns="http://www.w3.org/2000/svg" viewBox="0 0 433.31 351.5">
  <defs>
    <style>
      .cls-1 {
        fill: #eeb661;
      }

      .cls-2 {
        fill: #f2ead9;
      }

      .cls-3 {
        fill: #239b7d;
      }

      .cls-4 {
        fill: #c8c4b6;
      }

      .cls-5 {
        fill: #0b6150;
      }

      .cls-6 {
        fill: #db543d;
      }
    </style>
  </defs>
  <path class="cls-1" d="M430.12,222.07c-1.86-1.2-3.29-2.1-4.39-2.78l2.07-25.73-12.7-16.38-6.08-2.66c-1.78-.78-3.8-1.42-5.67-1.79l-2.89-.57-2.86.67c-3.12.73-8.55,2.27-11.12,3.05l-6.89,2.11-2.12,6.88c-.95,3.07-.98,6.06-.91,7.56v.18c-.46.28-.92.58-1.37.89-2.45-1.51-5.24-2.44-8.2-2.71.62-5.62.94-11.24.94-16.79,0-85.39-69.47-154.86-154.87-154.86S58.2,88.61,58.2,174.01c0,11.53,1.3,23.01,3.87,34.27l-.24.05c-3.12.73-8.55,2.27-11.12,3.06l-2.84.87-5.11-.16c-2.4-.05-8.49.54-10.97,1.2l-5.09,1.37-2.84,4.44c-5.14,8.04-11.81,21.18-16.93,33.27l-5.03,2.42-1.35,6.6c-.68,3.3-.57,6.64-.51,7.58l.53,10.02,13.51,17.42,21.26-2.25v33.92c0,3.48,1.79,6.59,4.78,8.33,1.47.86,3.15,1.31,4.84,1.31s3.31-.44,4.75-1.26c26.17-14.87,89.98-17.27,151.73-19.59,67.51-2.54,137.32-5.16,185.41-23.74l5.17-2v-33.88c1.06.04,2.14,0,3.23-.1,2.39-.26,4.75-.95,6.95-2.04,2.28.62,4.74.81,7.28.54,11.09-1.17,20.53-10.8,22.46-22.9l1.37-8.63-3.19-2.05Z"/>
  <g>
    <path class="cls-3" d="M103.62,347.55c.05.32.02,1.06-.02,1.42l-6.76.96c-.07-.34-.07-1.06-.05-1.38l1.45-.51c.28-.13.34-.16.34-.56v-4.95c-.97.11-2.39.29-3.91.51-1.45.21-2.85.43-3.77.56v3.16c0,.84.02,1.58.09,2.19.57.03,1.2.08,1.7.15.02.32.02,1.07-.05,1.42l-6.76.96c-.07-.34-.07-1.06-.05-1.39l1.52-.52c.32-.12.39-.17.39-.57v-9.52c0-.83-.02-1.55-.11-2.19-.62-.03-1.29-.05-1.79-.14-.02-.32-.02-1.04.05-1.42l6.76-.96c.07.36.07,1.06.05,1.39l-1.45.51c-.3.14-.34.19-.34.56v4.46c.92-.13,2.32-.31,3.77-.51,1.52-.22,2.94-.44,3.91-.6v-2.62c0-.84-.02-1.58-.09-2.19-.57-.03-1.2-.06-1.7-.15-.02-.32-.02-1.04.05-1.42l6.76-.96c.05.37.07,1.06.02,1.39l-1.52.52c-.3.14-.37.19-.37.56v9.52c0,.83.02,1.57.09,2.19.62.03,1.29.07,1.79.14Z"/>
    <path class="cls-3" d="M124.64,338.89c0,5.36-3.26,8.76-8.53,9.27-4.72.45-8.16-1.87-8.16-7.39s3.26-8.74,8.51-9.24c4.72-.45,8.19,1.84,8.19,7.36ZM121.34,339.6c0-4.41-2.36-6.51-5.74-6.18-.95.09-1.78.33-2.5.77-1.2,1.35-1.85,3.38-1.85,5.86,0,4.43,2.36,6.51,5.74,6.18.92-.09,1.78-.36,2.52-.8,1.18-1.32,1.83-3.38,1.83-5.84Z"/>
    <path class="cls-3" d="M150.26,345.19l-6.86.45c-.05-.35-.07-1.09-.02-1.41l1.39-.35c.37-.12.39-.16.39-.61,0-1.53-.16-6.49-.39-9.84h-.12s-4.47,9.61-4.47,9.61c-.49.12-1.88.22-2.48.16l-4.36-9.03h-.09c-.14,2.68-.19,7.72-.14,10.3.81.11,1.53.2,1.9.29.05.32.02,1.04-.02,1.42l-6.26.41c-.05-.35-.07-1.06-.02-1.39l1.39-.35c.44-.14.46-.17.51-.52.23-1.87.51-7.79.6-11.83-.72-.07-1.46-.18-1.85-.28-.02-.32-.02-1.04.02-1.42l5.7-.37,4.45,9.35,4.57-9.93,5.44-.35c.05.37.05,1.09.02,1.41-.39.14-1.14.33-1.83.51.21,3.42.51,8.63.74,12.09l1.81.26c.02.32.02,1.07-.02,1.42Z"/>
    <path class="cls-3" d="M167.56,344.38l-12.96.62c-.07-.35-.07-1.06-.05-1.39l1.53-.38c.33-.09.4-.13.4-.53v-9.52c0-.84-.02-1.55-.12-2.2-.63-.09-1.3-.17-1.81-.31-.02-.32-.02-1.04.05-1.42l11.96-.57c.09,1.06.05,3.16-.07,4.25-.37.09-1.04.14-1.46.12-.23-.68-.51-1.67-.65-2.4-1.74-.01-3.11,0-4.71.06v5.06l.77-.04c1.67-.08,3.04-.12,3.99-.12.02.32,0,1.28-.05,1.58-1.25.13-2.41.19-3.95.26l-.77.04v3.25c0,.79,0,1.65.05,2.25,1.67-.08,3.62-.22,5.73-.53.18-.87.46-1.99.67-2.61.44-.04,1.09-.03,1.49,0,.07,1.06.05,3.04-.05,4.53Z"/>
    <path class="cls-3" d="M188.25,343.52l-6.92.28c-.05-.35-.05-1.07-.05-1.39l1.53-.37c.33-.08.4-.13.4-.52v-9.52c0-.84-.02-1.55-.12-2.2-.63-.09-1.3-.18-1.81-.32-.02-.32-.02-1.04.05-1.42l6.92-.28c.05.37.05,1.07.02,1.39l-1.53.36c-.3.1-.35.15-.35.52v9.52c0,.84.02,1.58.09,2.2.6.09,1.28.2,1.79.32.05.32.02,1.07-.02,1.41Z"/>
    <path class="cls-3" d="M210.35,326.93c.05.37.05,1.07.02,1.39l-1.49.36c-.33.08-.37.13-.4.6-.09,1.63-.16,5.76-.19,10.27v3.16c-.88.13-1.67.16-2.46.19l-9.03-11.56h-.12v6.27c.02,1.41.07,2.6.14,3.64.91.13,1.88.3,2.53.44.02.32.02,1.07-.02,1.41l-6.64.26c-.07-.35-.07-1.07-.05-1.39l1.49-.33c.32-.08.37-.15.39-.6.07-1.16.19-6.07.19-9.04,0-.83-.02-1.6-.02-2.65-.91-.13-1.56-.22-1.9-.32-.02-.33,0-1.05.02-1.42l4.83-.18,8.61,11.05h.12c0-1.72-.02-3.65-.05-5.41-.02-1.51-.07-2.92-.14-4.01-.81-.16-1.56-.29-2.02-.46-.05-.32-.02-1.05.02-1.42l6.15-.24Z"/>
    <path class="cls-3" d="M226.4,337.64c0,2.93-2.14,4.94-6.15,5.1-2.21.09-4.34-.34-5.6-.98-.02-1.39.09-3.53.21-4.42.39-.09,1.07-.16,1.62-.16.16.74.32,1.75.49,2.86,1.02.49,2.39.69,3.88.64.84-.03,1.58-.25,2.14-.57.3-.43.42-.92.42-1.53,0-1.7-1.09-2.4-3.95-3.37-2.18-.73-4.3-1.78-4.3-4.57s2.09-4.38,5.78-4.53c1.74-.07,3.41.12,4.36.43,0,.98-.09,2.77-.23,3.98-.35.08-1.14.14-1.6.11-.19-.67-.4-1.63-.53-2.39-.65-.18-1.58-.31-2.41-.28-.91.04-1.62.25-2.09.48-.21.47-.3.85-.3,1.38,0,1.55,1.25,2.06,3.37,2.77,3.11,1.06,4.9,2.38,4.9,5.05Z"/>
    <path class="cls-3" d="M237.6,325.82c5.06-.23,7.01,1.28,7.01,4.62,0,3.13-1.97,5.13-5.83,5.31-1.09.05-2.09.03-2.9-.05v1.93c0,.81.02,1.53.07,2.16.91.07,2.18.2,2.76.31.02.32.02,1.07-.02,1.42l-7.87.36c-.07-.35-.07-1.07-.05-1.39l1.53-.37c.33-.09.4-.13.4-.53v-9.52c0-.84-.02-1.56-.12-2.2-.63-.09-1.3-.17-1.81-.31-.02-.33-.02-1.04.05-1.42l6.78-.31ZM235.88,333.61c.91.21,1.9.28,2.97.24.91-.04,1.53-.21,2.11-.51.3-.67.44-1.62.44-2.51,0-2.35-1.07-3.22-3.71-3.1-.7.03-1.32.08-1.81.1v5.78Z"/>
    <path class="cls-3" d="M262.06,340.31l-12.93.72c-.07-.34-.07-1.06-.05-1.39l1.53-.39c.32-.09.39-.14.39-.53v-9.52c0-.84-.02-1.55-.12-2.2-.63-.08-1.3-.16-1.81-.29-.02-.32-.02-1.04.05-1.42l11.93-.66c.09,1.06.05,3.15-.07,4.25-.37.09-1.04.15-1.46.13-.23-.68-.51-1.67-.65-2.4-1.74,0-3.1.03-4.7.1v5.06l.77-.04c1.67-.09,3.04-.14,3.99-.15.02.33,0,1.28-.05,1.58-1.25.14-2.41.2-3.94.29l-.77.04v3.25c0,.79,0,1.65.05,2.25,1.67-.09,3.62-.25,5.72-.57.19-.87.46-2,.67-2.61.44-.05,1.09-.04,1.48-.01.07,1.06.05,3.04-.05,4.53Z"/>
    <path class="cls-3" d="M280.3,337.71c-1.32,1.07-3.27,2.02-5.98,2.21-4.7.33-7.9-2.09-7.9-7.47,0-5.69,3.2-8.79,8.73-9.18,1.74-.12,3.41.04,4.66.34.05.88.02,3.22-.14,4.54-.35.07-1.18.18-1.55.16-.23-.7-.51-1.89-.72-2.97-.93-.17-1.9-.22-2.8-.15-1.21.09-2.34.4-3.22.81-.97,1.23-1.64,3.02-1.64,5.52,0,4.39,2.41,6.33,5.95,6.08,1.46-.1,2.97-.44,4.19-1.09.16.29.37.83.42,1.2Z"/>
    <path class="cls-3" d="M299.24,321.69c.14,1.43.14,3.47.02,4.71-.39.1-1.18.22-1.6.22-.19-.64-.46-1.84-.65-2.8-.81.03-1.85.07-3.45.2v9.91c0,.83.02,1.58.09,2.17.74.07,1.57.14,2.1.23.02.32.02,1.07-.02,1.42l-7.52.68c-.05-.35-.07-1.06-.02-1.39l1.83-.47c.32-.1.35-.15.35-.54v-9.52c0-.84-.02-1.55-.07-2.2-1.5.16-2.57.3-3.33.42-.21,1.02-.48,2.25-.67,2.91-.39.08-1.18.11-1.57.07-.12-1.22-.12-3.26.02-4.72l14.48-1.3Z"/>
    <path class="cls-3" d="M320.15,327.02c0,5.36-3.26,8.84-8.52,9.47-4.71.56-8.15-1.68-8.15-7.2s3.25-8.82,8.49-9.44c4.71-.56,8.17,1.65,8.17,7.18ZM316.85,327.81c0-4.41-2.35-6.45-5.73-6.05-.95.11-1.78.37-2.49.83-1.2,1.38-1.85,3.43-1.85,5.91,0,4.43,2.35,6.45,5.73,6.05.92-.11,1.78-.4,2.52-.86,1.18-1.35,1.82-3.42,1.82-5.88Z"/>
    <path class="cls-3" d="M340.89,331.59c-.48.31-1.56.74-2.59.91-2,.32-3.12.2-5.76-4.22l-.83-1.35c-.83.13-1.63.2-2.23.2v2.46c0,.84.02,1.58.09,2.19.6.02,1.26.05,1.77.11.05.32.02,1.06-.02,1.42l-6.84,1.11c-.07-.34-.07-1.06-.05-1.39l1.51-.55c.32-.12.39-.18.39-.57v-9.52c0-.84-.02-1.55-.11-2.19-.62-.01-1.28-.02-1.79-.1-.02-.32-.02-1.04.05-1.42l6.49-1.05c4.68-.76,6.88.32,6.88,3.55,0,2.07-1.12,3.5-3.08,4.45l.34.57c1.97,3.09,2.8,3.91,4.15,3.99.48.09.99.07,1.61.02.05.34.05,1.01,0,1.39ZM329.49,325.06c.73.09,1.7.05,2.85-.14.69-.11,1.33-.35,1.84-.69.32-.56.53-1.32.53-2.41,0-1.9-1.06-2.73-3.6-2.32-.55.09-1.1.2-1.61.33v5.23ZM334.61,323.88l.11-.13-.11.13Z"/>
  </g>
  <path class="cls-2" d="M316.97,223.09c-25.27,0-45.75-20.49-45.75-45.75s20.49-45.75,45.75-45.75c16.72,0,31.3,8.99,39.28,22.38-9.67-71.21-70.68-126.1-144.54-126.1-80.59,0-145.91,65.33-145.91,145.91,0,53.51,28.82,100.27,71.78,125.66,13.07-.02,26.14-.37,39.19-1.01,16.38-.8,32.74-2.02,49.07-3.51,16.26-1.48,32.49-3.22,48.71-5.08,9.97-1.14,19.97-2.24,29.94-3.44,25.18-20.77,43.23-49.84,50.07-83.01-8.26,11.9-22.01,19.71-37.59,19.71Z"/>
  <g>
    <path class="cls-5" d="M102.86,41.16c-.14-.18-.21-.35-.18-.53s.14-.36.35-.53c.22-.18.41-.26.59-.25s.34.11.49.28l5.36,6.51c.14.18.21.35.19.53s-.14.36-.35.53c-.21.17-.4.25-.58.24-.18-.01-.34-.1-.49-.28l-5.36-6.51Z"/>
    <path class="cls-5" d="M109.69,36.22c-.22-.3-.3-.59-.26-.85.04-.26.22-.5.53-.72.14-.1.27-.17.39-.2.12-.04.25-.05.37-.05.12,0,.25.03.38.07.13.04.27.09.42.15l6.05,2.48c.2.08.38.16.56.25.18.09.34.16.48.23.16.09.31.16.46.24l.02-.03c-.11-.13-.22-.26-.34-.41-.1-.12-.22-.26-.35-.42-.13-.16-.26-.33-.39-.51l-3.24-4.42c-.13-.16-.18-.33-.14-.5.03-.17.15-.33.35-.47.2-.14.39-.2.56-.18s.31.12.43.29l4.7,6.56c.22.31.31.59.27.85-.04.26-.22.5-.53.72-.14.1-.27.17-.4.2-.13.04-.25.06-.38.05-.12,0-.25-.03-.38-.07-.13-.04-.27-.09-.41-.15l-6.05-2.48c-.2-.08-.38-.16-.57-.25-.18-.09-.34-.16-.48-.23-.17-.08-.32-.16-.47-.24v.03c.09.12.21.26.33.41.1.12.22.26.35.43s.26.33.39.5l3.24,4.42c.13.16.18.33.14.5-.03.17-.15.33-.35.47-.2.15-.39.21-.56.18s-.31-.12-.43-.29l-4.71-6.57Z"/>
    <path class="cls-5" d="M121.8,28.2c-.15.09-.3.12-.45.08s-.28-.15-.39-.34c-.11-.19-.15-.36-.12-.51.03-.14.13-.27.28-.36l5.55-3.34c.15-.09.3-.12.45-.08s.28.15.39.35c.11.19.15.36.12.5s-.13.27-.28.36l-2.09,1.26,4.02,6.67c.12.19.15.38.1.55-.05.17-.19.33-.42.47s-.44.19-.62.15c-.18-.04-.32-.16-.44-.35l-4.02-6.67-2.08,1.25Z"/>
    <path class="cls-5" d="M137.57,27.46l3.18-1.62c.16-.08.3-.1.45-.05.14.05.26.17.36.36.1.19.12.36.08.5-.04.14-.14.26-.3.33l-3.95,2.01c-.21.11-.41.14-.59.08s-.32-.19-.43-.41l-3.75-7.36c-.11-.21-.13-.41-.08-.58.06-.18.19-.32.41-.43l3.91-2c.16-.08.31-.1.45-.05.14.05.26.17.35.35.1.19.12.36.08.5-.04.14-.14.26-.3.34l-3.15,1.61,1.29,2.53,2.71-1.38c.16-.08.3-.1.44-.05.14.05.26.17.35.35.09.18.12.35.08.49-.04.14-.14.25-.29.33l-2.71,1.38,1.4,2.74Z"/>
    <path class="cls-5" d="M148.17,23.13c.09.21.1.4.03.56-.07.17-.23.3-.48.41-.25.11-.46.13-.63.06-.17-.07-.29-.2-.38-.41l-3.25-7.7c-.09-.22-.1-.41-.04-.58s.21-.31.44-.4l1.86-.79c.59-.25,1.12-.4,1.6-.46.48-.06.9-.04,1.27.07.37.1.69.28.95.53s.47.56.62.92c.13.32.21.63.23.94.02.31-.01.61-.1.9-.09.29-.22.56-.4.81-.18.25-.41.48-.67.68l3.11,2.08c.1.07.18.13.24.19.06.06.11.13.15.21.04.1.06.21.05.32-.01.11-.04.21-.09.31-.05.1-.12.19-.2.27-.08.08-.18.14-.28.19-.1.04-.2.06-.29.06-.09,0-.18-.02-.26-.05-.03-.01-.05-.03-.08-.04-.03-.01-.06-.03-.09-.05s-.06-.04-.09-.06c-.03-.02-.07-.05-.12-.08l-3.45-2.45-.98.41,1.33,3.15ZM147.39,18.38c.33-.14.6-.29.81-.47.21-.18.37-.36.48-.56s.16-.4.16-.62c0-.21-.05-.43-.14-.65-.09-.22-.21-.4-.36-.54-.15-.15-.32-.25-.53-.3-.21-.05-.45-.06-.73-.03s-.59.13-.94.28l-1.01.43,1.22,2.9,1.04-.44Z"/>
    <path class="cls-5" d="M155.54,11.56c-.12-.35-.11-.65,0-.89.12-.24.36-.41.72-.53.16-.05.31-.08.44-.08.13,0,.26.02.37.07.12.04.23.1.34.17.11.08.23.16.35.27l5.03,4.18c.16.14.32.27.46.41.14.14.27.26.39.37.13.13.25.25.37.36l.03-.02c-.07-.15-.13-.32-.21-.49-.06-.15-.13-.32-.21-.51-.08-.19-.15-.39-.22-.6l-1.77-5.19c-.07-.2-.07-.37.02-.52.09-.15.24-.27.48-.34.24-.08.43-.08.58,0,.15.07.26.21.32.41l2.52,7.67c.12.36.12.66,0,.89s-.36.41-.72.53c-.16.05-.31.08-.44.08-.13,0-.26-.02-.37-.06-.12-.04-.23-.1-.34-.18-.11-.07-.23-.16-.35-.27l-5.03-4.18c-.16-.13-.32-.27-.47-.41-.15-.14-.28-.26-.39-.37-.13-.12-.26-.25-.37-.36l-.02.02c.07.15.13.32.21.49.06.15.13.32.21.52.07.19.15.39.22.6l1.77,5.19c.07.19.07.37-.02.52-.09.15-.24.27-.48.34-.24.08-.43.08-.58,0s-.26-.21-.32-.41l-2.53-7.68Z"/>
    <path class="cls-5" d="M172.59,14.74c-.01.16-.03.3-.05.4s-.05.19-.09.26c-.04.06-.09.12-.17.17-.08.05-.17.09-.28.12-.1.02-.2.03-.3.02s-.2-.03-.29-.07-.17-.09-.24-.16c-.07-.07-.11-.16-.14-.27-.01-.06-.02-.12-.02-.19,0-.07,0-.18.02-.34l.86-8.05c.01-.09.02-.18.03-.25,0-.08.03-.15.05-.22.02-.07.04-.13.07-.18.02-.05.05-.11.08-.16.07-.12.17-.22.3-.3s.29-.15.5-.2c.2-.05.38-.07.53-.05.15.02.29.06.41.13.05.04.1.07.15.11.05.04.09.08.14.13.05.05.09.1.14.17s.1.13.15.21l4.4,6.78c.09.13.15.23.18.29.03.06.05.12.06.17.03.12.03.23,0,.33-.03.1-.08.19-.15.27s-.15.14-.25.2c-.1.06-.19.1-.29.12-.1.03-.21.03-.3.02-.09-.01-.18-.05-.25-.09-.07-.04-.13-.1-.19-.18s-.13-.18-.21-.32l-1.01-1.57-3.66.87-.16,1.83ZM175.72,10.89l-1.75-2.78c-.11-.17-.21-.33-.3-.48-.09-.15-.17-.29-.25-.4-.08-.14-.15-.27-.22-.39h-.03c0,.14-.01.29-.02.45,0,.14-.02.29-.03.47-.01.17-.03.36-.04.56l-.27,3.26,2.9-.69Z"/>
    <path class="cls-5" d="M183.12,8.49c-.13-.82-.13-1.58-.01-2.26.12-.69.35-1.29.69-1.81.34-.51.77-.94,1.3-1.27.53-.33,1.13-.55,1.82-.66.29-.05.57-.07.82-.06s.47.03.67.07c.2.04.36.09.5.14.14.06.25.11.32.17.1.07.18.15.23.23.05.08.08.18.1.3.01.08.01.16,0,.24-.02.08-.05.14-.09.2-.04.06-.1.1-.16.15s-.14.07-.22.08c-.1.02-.21,0-.32-.04s-.24-.08-.4-.12c-.15-.04-.34-.07-.55-.09-.21-.02-.47,0-.78.04-.4.07-.76.2-1.09.42-.32.21-.59.5-.81.86s-.36.78-.44,1.28c-.08.49-.07,1.05.03,1.67.09.56.24,1.05.46,1.46.22.41.48.75.8,1,.31.26.66.43,1.06.53s.8.11,1.24.04c.3-.05.55-.11.75-.2.2-.08.37-.17.5-.26.14-.09.25-.16.35-.23.1-.07.19-.11.29-.12.07-.01.14,0,.21,0,.07.02.13.05.18.09s.09.09.13.16c.04.06.06.13.07.2.02.1.01.2,0,.29s-.07.18-.14.27c-.07.09-.17.19-.3.3-.13.11-.3.22-.5.33-.2.11-.43.21-.7.3-.27.09-.57.16-.9.22-.65.1-1.25.09-1.82-.04-.57-.13-1.08-.36-1.53-.7s-.82-.78-1.12-1.32c-.3-.54-.51-1.17-.63-1.88Z"/>
    <path class="cls-5" d="M198.08,10.43c.02.23-.03.41-.15.54-.12.13-.32.21-.6.24-.27.02-.47-.03-.62-.14s-.22-.28-.24-.51l-.65-8.41c-.02-.23.04-.41.16-.54.12-.14.32-.22.59-.24.28-.02.49.03.63.14.14.12.22.29.24.51l.27,3.43,4.37-.34-.27-3.44c-.02-.23.03-.41.16-.54.12-.13.32-.21.59-.24.27-.02.47.03.62.14.14.12.22.29.24.51l.65,8.41c.02.23-.04.41-.16.54-.12.13-.32.21-.59.23-.27.02-.48-.03-.62-.14-.14-.12-.22-.29-.24-.51l-.28-3.67-4.38.34.28,3.67Z"/>
    <path class="cls-5" d="M210.16,1.35c0-.23.06-.4.19-.53s.33-.19.6-.2c.28,0,.48.05.62.18.13.12.2.3.2.52l.14,8.43c0,.23-.06.41-.19.53-.13.13-.33.19-.61.2-.27,0-.47-.06-.61-.18-.13-.12-.2-.3-.21-.52l-.14-8.44Z"/>
    <path class="cls-5" d="M217.67,2.79c.02-.42.11-.81.27-1.16.16-.35.38-.65.66-.9.28-.25.6-.44.97-.56.37-.13.78-.18,1.22-.16.44.02.84.11,1.19.26.35.16.65.37.9.63s.44.57.56.93c.12.35.18.75.16,1.17-.02.43-.11.81-.27,1.16-.16.35-.38.65-.65.9-.28.25-.6.44-.97.56-.37.13-.78.18-1.22.16-.44-.02-.84-.11-1.2-.26-.35-.16-.65-.37-.9-.63-.25-.26-.43-.57-.56-.93-.13-.35-.18-.75-.16-1.17ZM218.36,2.79c-.01.34.03.65.13.94.1.29.24.54.43.74s.42.37.69.5c.27.12.58.19.92.21.34.01.65-.03.93-.13.29-.1.53-.24.74-.43.21-.19.37-.43.49-.7s.19-.59.21-.93c.02-.35-.03-.66-.12-.94-.1-.28-.24-.53-.43-.74-.19-.21-.42-.38-.69-.5s-.58-.19-.92-.21c-.33-.01-.65.03-.93.13-.28.1-.53.24-.74.43-.21.19-.37.43-.49.7-.12.27-.19.58-.21.93ZM220.16,4.08c0,.09-.03.16-.09.21-.06.05-.14.07-.25.07-.11,0-.19-.03-.24-.09s-.07-.12-.07-.22l.1-2.42c0-.09.03-.16.09-.21s.13-.07.22-.07l.75.03c.42.02.72.11.91.28.18.17.27.38.26.63,0,.22-.07.39-.19.53-.12.14-.27.23-.45.28.04.14.09.26.15.36.06.1.12.18.2.26.06.07.11.12.16.16.05.04.09.08.12.11.03.03.05.06.06.09,0,.03.01.07.01.1,0,.07-.04.14-.1.19-.06.05-.14.07-.25.07-.09,0-.18-.03-.26-.07-.08-.04-.17-.11-.25-.19-.09-.11-.18-.23-.26-.38-.08-.14-.15-.34-.22-.59l-.39-.02-.04.9ZM220.63,2.69c.18,0,.32-.03.41-.1.09-.07.14-.17.14-.29,0-.12-.03-.21-.11-.29-.08-.07-.22-.11-.43-.12h-.37s-.04.78-.04.78l.4.02Z"/>
    <path class="cls-5" d="M236.2,7.41c.13-.82.36-1.54.69-2.16s.74-1.11,1.22-1.5c.48-.39,1.03-.65,1.63-.8.6-.15,1.25-.17,1.93-.06.29.05.56.11.79.2s.44.18.62.27c.18.1.32.2.43.29.11.1.2.18.25.26.07.1.12.2.14.29.02.09.02.2,0,.31-.01.09-.04.16-.08.23s-.09.12-.15.16-.13.07-.2.09c-.07.02-.15.02-.24,0-.1-.02-.2-.06-.29-.13-.09-.07-.21-.15-.34-.24-.13-.09-.3-.17-.49-.26-.2-.09-.45-.15-.76-.2-.4-.06-.79-.04-1.16.06-.38.1-.72.29-1.03.56-.31.27-.58.63-.81,1.08-.23.45-.39.98-.49,1.6-.09.56-.09,1.07-.01,1.53.08.46.23.86.45,1.2s.5.62.84.83.73.35,1.16.42c.3.05.56.06.77.04.22-.02.4-.05.56-.09s.29-.08.41-.11.22-.05.31-.03c.07.01.14.04.2.08.06.04.1.09.14.14.03.06.06.12.07.19.02.07.02.14,0,.22-.02.11-.05.2-.1.28-.05.07-.12.14-.21.21-.09.07-.22.13-.38.19-.16.07-.35.12-.57.16-.22.04-.47.07-.76.07-.28,0-.59-.02-.92-.07-.64-.1-1.22-.31-1.72-.61-.5-.3-.91-.68-1.23-1.14s-.54-1-.66-1.6c-.12-.61-.12-1.26-.01-1.98Z"/>
    <path class="cls-5" d="M249.85,13.28l3.48.82c.17.04.29.12.37.26.08.13.09.3.04.5-.05.21-.14.35-.26.43s-.28.1-.45.06l-4.31-1.01c-.23-.05-.4-.16-.5-.32s-.12-.35-.06-.58l1.89-8.04c.05-.23.16-.4.32-.5.16-.1.35-.12.59-.07l4.28,1c.18.04.3.13.38.26.08.13.09.3.04.5-.05.21-.14.35-.26.44-.13.09-.28.11-.45.07l-3.44-.81-.65,2.76,2.96.69c.17.04.29.12.37.25.07.13.09.29.04.5-.05.2-.13.35-.26.43s-.27.1-.44.07l-2.96-.69-.7,2.99Z"/>
    <path class="cls-5" d="M260.75,16.81c-.07.22-.18.37-.34.45-.16.08-.37.08-.63,0-.26-.08-.44-.2-.52-.36-.09-.16-.09-.35-.03-.56l2.49-7.97c.07-.22.19-.38.35-.47.16-.09.36-.1.59-.02l1.93.6c.61.19,1.11.42,1.52.68.4.27.71.56.93.88.22.32.34.66.38,1.01s0,.73-.12,1.1c-.1.33-.25.62-.44.86-.19.25-.41.46-.66.62s-.53.28-.83.36c-.3.07-.62.1-.95.09l1.03,3.6c.03.12.06.22.07.3,0,.09,0,.17-.03.26-.03.11-.09.2-.17.28s-.17.14-.28.18c-.1.04-.21.07-.33.08s-.23,0-.34-.04c-.11-.03-.2-.08-.26-.14-.07-.06-.12-.13-.16-.2-.01-.03-.02-.06-.04-.09-.01-.03-.03-.06-.04-.09s-.02-.07-.03-.1c0-.04-.02-.09-.03-.14l-1.05-4.09-1.02-.32-1.02,3.26ZM263.22,12.68c.34.11.65.16.92.16s.52-.04.72-.12c.21-.08.38-.2.52-.37.14-.16.24-.36.31-.58.07-.22.1-.44.08-.65-.02-.2-.09-.39-.21-.57-.12-.18-.3-.34-.54-.49s-.54-.28-.9-.4l-1.04-.33-.94,3.01,1.07.33Z"/>
    <path class="cls-5" d="M272.85,12.66c-.17-.07-.28-.17-.34-.31s-.05-.31.04-.52c.08-.21.19-.34.33-.41.14-.06.29-.06.46,0l6.03,2.37c.17.07.28.17.34.31.06.14.05.31-.04.52-.08.21-.19.34-.33.41-.14.06-.29.06-.46,0l-2.27-.89-2.85,7.24c-.08.21-.21.35-.37.42-.17.07-.38.05-.63-.05-.26-.1-.42-.23-.5-.4-.08-.16-.08-.35,0-.56l2.85-7.24-2.26-.89Z"/>
    <path class="cls-5" d="M284.79,16.93c.09-.2.23-.34.4-.39.17-.06.38-.03.63.08.25.12.41.26.48.43.07.17.05.36-.05.56l-3.55,7.65c-.09.21-.23.34-.4.4-.17.06-.38.03-.64-.09-.25-.11-.4-.26-.47-.42-.07-.17-.05-.36.04-.56l3.55-7.65Z"/>
    <path class="cls-5" d="M289.74,28.78c-.11.2-.25.32-.43.37-.18.05-.39,0-.62-.12-.24-.12-.38-.28-.44-.45-.06-.17-.03-.36.08-.56l3.94-7.36c.11-.21.26-.34.43-.39.18-.06.37-.03.58.09l3.82,2.04c.16.09.26.2.29.34.04.14,0,.31-.09.49-.1.19-.22.31-.36.36s-.29.03-.45-.05l-3.06-1.64-1.42,2.65,2.55,1.37c.15.08.25.2.29.34.04.14,0,.31-.09.49-.1.19-.22.3-.36.35-.14.05-.29.03-.44-.05l-2.56-1.37-1.67,3.11Z"/>
    <path class="cls-5" d="M302.22,26.16c.12-.19.27-.31.45-.35.18-.04.38.01.61.15.24.14.38.31.43.48.05.17,0,.36-.11.55l-4.4,7.2c-.12.19-.27.31-.44.35-.18.04-.38-.01-.62-.16-.23-.14-.37-.3-.42-.47-.05-.18-.01-.36.11-.55l4.4-7.2Z"/>
    <path class="cls-5" d="M306.08,37.94l2.93,2.04c.14.1.23.22.25.37.02.15-.03.31-.15.48-.12.18-.26.28-.4.31-.15.03-.29,0-.44-.1l-3.64-2.53c-.2-.14-.31-.3-.34-.48-.03-.18.02-.37.16-.57l4.71-6.79c.13-.19.29-.31.47-.34.18-.03.37.02.57.16l3.61,2.5c.15.1.23.23.26.38.02.15-.02.31-.14.48-.12.17-.26.28-.41.31s-.3,0-.44-.1l-2.91-2.02-1.62,2.33,2.5,1.74c.14.1.23.22.25.37s-.03.31-.15.48c-.12.17-.25.27-.4.3s-.29,0-.43-.1l-2.5-1.74-1.75,2.53Z"/>
    <path class="cls-5" d="M318.94,37.73c.15-.18.31-.28.5-.31.18-.02.37.05.56.2l1.8,1.46c.62.5,1.1,1.03,1.44,1.58.34.55.55,1.11.63,1.68.07.57,0,1.15-.19,1.73s-.53,1.16-1,1.74c-.5.62-1.04,1.09-1.62,1.44-.58.34-1.18.54-1.79.6s-1.25-.02-1.89-.24c-.64-.22-1.27-.58-1.89-1.08l-1.65-1.34c-.19-.15-.29-.32-.31-.5-.02-.19.05-.37.2-.55l5.21-6.41ZM316.36,45.61c.4.33.82.56,1.24.7.42.14.85.18,1.27.13.42-.06.84-.21,1.25-.47.41-.26.8-.62,1.18-1.08.38-.46.65-.91.82-1.34.17-.44.23-.86.2-1.26-.03-.41-.17-.8-.4-1.18s-.57-.74-1-1.09l-1.06-.86-4.55,5.6,1.05.86Z"/>
  </g>
  <path class="cls-5" d="M340.5,106.89c-3.56-8.77-12.41-12.45-16.67-12.28-4.37.17-8.57,1.83-11.96,4.51-.03,0-.06-.02-.1-.02-.69.03-1.38.06-2.07.09,1.06-.96,2.12-1.93,3.18-2.89.3-.28.05-.78-.33-.78-1.41.01-2.75.31-4,.87.65-.8,1.47-1.42,2.4-1.84.72-.19,1.44-.39,2.16-.58.49-.13.39-.95-.13-.9-.04,0-.08.01-.12.02,0,0,0,0,0,0,0,0-.01,0-.02,0-.74.09-1.45.29-2.12.57-.57.15-1.15.31-1.72.46.21-.49.54-.92.94-1.25.92-.22,1.84-.45,2.76-.67.43-.1.44-.8-.01-.88-1.14-.2-2.27.09-3.15.71-.25.06-.49.12-.74.18.52-1.17,1.49-2.05,2.69-2.45.37-.08.74-.16,1.11-.24.51-.11.38-.95-.13-.9-.04,0-.08.02-.12.02,0,0,0,0,0,0-.02,0-.04,0-.06.01-.32.04-.62.11-.92.2l-1.68.36c.89-.7,1.78-1.4,2.67-2.1.41-.32-.06-.82-.45-.76-1.26.21-2.51.41-3.77.62.91-.77,1.81-1.53,2.72-2.3.39-.33-.06-.82-.45-.76-1.52.23-3.04.46-4.56.7.26-.51.68-.88,1.3-1.07.48-.14.39-.97-.13-.9-.96.13-1.92.26-2.89.38-.11-.23-.03-.06-.14-.28.79-.89-.16-1.39-.55-.87-.58.77-.86-.98-.84-1.17.03-.29.18-.58.29-.85.1-.27-.18-.6-.45-.57-.37.03-.75.07-1.12.1-.42-.82-.45-.87-.87-1.69,1.26-1.56-.55-1.59-.45-.87.02.13.03.25.05.38-.88-.9-1.76-1.8-2.64-2.7-.31-.32-.92.01-.76.45.28.76.55,1.51.83,2.27-1.43-.41-2.85-.82-4.28-1.23-.51-.15-.77.58-.34.84.61.38,1.23.77,1.84,1.15-.46.24-.92.48-1.38.72-.36.19-.25.74.12.84.76.19,1.53.39,2.29.58-.25.06-.5.12-.75.19-.44.11-.43.79.01.88.8.17,1.47.49,2.07.96-.35.05-.7.11-1.05.16-.29.04-.42.45-.27.67.53.8,1.06,1.59,1.6,2.39-.4.06-.81.11-1.21.17-.41.06-.57.46-.31.78.85,1.07,1.7,2.14,2.55,3.21-.52-.11-1.03-.21-1.55-.32-.36-.07-.74.33-.51.68.58.85,1.16,1.69,1.74,2.54-.59-.13-1.19-.25-1.78-.38-.11-.02-.22.01-.33.06-1.86-3.58-4.09-6.95-6.9-9.9-5.33-5.6-12.85-9.4-20.71-8.84-.39.03-.51.44-.37.7-.04.21.05.45.32.52,1.74.44,3.48.88,5.23,1.32-.94.61-1.88,1.22-2.82,1.83-.38.25-.22.84.24.85.88.03,1.76.06,2.64.09-.34.27-.65.6-.92.99-.17.25,0,.61.28.67.83.19,1.66.39,2.49.58-.83.3-1.6.78-2.24,1.44-.29.3-.06.76.33.78,1.89.09,3.79.18,5.68.28-.32.16-.63.32-.95.49-.35.18-.26.76.12.84.64.13,1.28.25,1.92.38-.86.38-1.62.98-2.23,1.77-.2.26-.06.64.26.7l3.51.58c-.73.49-1.27,1.25-1.49,2.19-.07.33.23.67.57.55,1.14-.37,2.28-.74,3.41-1.11-.69.91-1.37,1.82-2.06,2.73-.29.38.27.84.63.62.61-.36,1.22-.72,1.83-1.09l-.78,2.88c-2.42.45-4.59,2.14-5.57,4.43-.91-.08-1.82-.13-2.74-.13-6.67-.03-13.34,1.97-18.44,6.36-.45.39.21,1.03.65.64.17-.15.34-.28.51-.42.11.04.24.04.37-.05.5-.35,1-.71,1.49-1.06-.28.46-.56.91-.85,1.37-.25.41.25.83.63.62.52-.28,1.03-.56,1.55-.83-.02.03-.05.07-.07.1-.29.39.26.82.63.62.29-.16.59-.32.88-.48-.27.32-.54.63-.81.95-.32.38.1,1,.56.72.88-.55,1.75-1.1,2.63-1.65-.28.36-.55.72-.83,1.08-.29.38.08,1.02.56.72.88-.56,1.77-1.12,2.65-1.69-.44.59-.88,1.17-1.32,1.76-.3.39.27.82.63.62,1.26-.67,2.53-1.35,3.79-2.02-.27.5-.5,1.02-.64,1.61-.09.37.34.73.68.51.37-.24.73-.48,1.1-.72-.05.05-.09.09-.14.14-.38.37.11.96.56.72,1.43-.79,2.85-1.59,4.28-2.38-.63.67-1.26,1.34-1.88,2.01-.41.44.2,1,.65.64,1.49-1.17,3.16-2,4.97-2.47-.47.56-.8,1.21-.99,1.96.44-.06.89-.03,1.3.07,0,0,0,0,.01,0,1.08-1.05,2.47-1.63,3.99-1.61-.07.09-.13.17-.2.26,1,.28,2.03.38,3.04.55-8.12,1.66-14.66,6.72-17.6,16.36-.18.59.48,1.11.78.57.42-.77.47-.75.95-1.48-.18.59.71.93.9.34.17-.53.34-1.05.51-1.58.06.35.11.7.17,1.04.07.41.62.54.87.21l.94-1.29.07.64c.05.53.73.48.93.1.43-.83.86-1.65,1.3-2.48.04.21.08.42.12.63.07.38.65.59.87.21.43-.75.86-1.49,1.29-2.24l.15.75c.08.38.64.58.87.21.74-1.21,1.49-2.43,2.23-3.64.12,1.34.23,2.68.35,4.02.05.57.88.49.96-.02.43-2.85,1.53-5.45,3.21-7.73-.27,1.92-.55,3.85-.82,5.77-.07.51.59.76.87.33l3.89-6c-.25,1.64-.49,3.27-.74,4.91-.09.62.84.7.96.11.38-1.88,1.13-3.61,2.18-5.15.59-.21,1.19-.41,1.81-.53-.74,2.15-.92,4.49-.29,6.69.57,1.99,1.83,3.86,3.53,5.09,1.19,6.81.11,14.12-.88,20.79-1.45,9.72-5.25,24.18-8.41,33.48-.07.21.01.37.15.47.07.29.47.52.78.26,3.93-3.33,8.61-12.29,10.98-16.85.15-.03.29-.12.36-.3.17-.48.33-.97.5-1.46.07-.14.14-.28.2-.43.04-.09.04-.18.03-.26,4.03-12.35,4.81-25.61,2.28-38.36.95-1.48,1.64-3.16,1.96-4.88.14-.74,1.19-4.57-.36-7.73-.14-.29.29-.46.48-.3.07-.08.14-.17.22-.24.15-.15.3-.29.45-.42.07-.06.14-.12.21-.18.04-.03.07-.06.11-.09.1-.09.07-.03-.02,0,.07-.03.14-.1.2-.14.03-.02.07-.04.1-.06.01,0,.08-.04.09-.05.02,0,.05-.01.07-.02.04,0,.08,0,.11,0,.14,0,.27-.03.39-.09.12.03.24.07.36.12.39.19.7-.13.64-.5.63.24,1.27.48,1.9.72.24.35.7.55,1.2.36.45-.16.41-.72-.01-.88-.03-.01-.06-.02-.08-.03,1.35-.37,3,.64,4.28,1.11.5.19.76-.58.34-.84-.68-.42-1.07-1-1.19-1.71,1.22.82,2.44,1.65,3.66,2.47.3.2.69-.08.68-.41l-.02-1.64,2.33,1.31c.33.19.65-.07.68-.41.03-.27.06-.55.09-.82.93.86,1.85,1.72,2.78,2.59.34.32.86,0,.76-.45-.19-.81-.38-1.63-.56-2.44l2.22,2.53c.25.28.84.06.78-.33-.1-.7-.21-1.39-.31-2.09,1.08,1.21,2.47,2.08,4.1,2.52.41.11.67-.34.51-.68-.37-.8-.75-1.6-1.12-2.4.54.5,1.08,1.01,1.62,1.51.56-2.2,2.58-.54,5.07,1.2.54.38,1.26-.19,1.01-.8Z"/>
  <path class="cls-5" d="M71.18,174.01c0-78.24,63.65-141.89,141.89-141.89s141.89,63.65,141.89,141.89c0,14.04-2.08,27.59-5.9,40.41h7.46c3.63-12.86,5.61-26.4,5.61-40.41,0-82.19-66.87-149.06-149.06-149.06S64.01,91.82,64.01,174.01c0,19.61,3.84,38.32,10.75,55.49h7.73c-7.27-17.05-11.31-35.81-11.31-55.49Z"/>
  <polygon class="cls-3" points="136 255.83 136 280.05 340.43 267.26 344.34 232.3 136 255.83"/>
  <g>
    <polygon class="cls-2" points="98.29 225.11 98.29 190.21 93.1 190.21 93.1 186.67 98.29 152.11 117.51 152.11 126 117.97 223.96 126.8 231.6 121.26 241.46 130.96 277.11 132 308.66 161.67 310.94 166.63 303.67 168.54 303.67 172.04 307.99 176.59 313.36 178.78 312.99 181.94 301.35 181.94 301.35 226.35 107.5 229.57 98.29 225.11"/>
    <polygon class="cls-4" points="141.73 229.57 141.73 160.57 138.29 160.57 138.29 154.61 129.8 131.58 124.52 153.19 97.22 158.7 93.1 185.61 93.1 190.21 98.29 190.21 98.35 223.73 106.59 229.57 141.73 229.57"/>
    <polygon class="cls-3" points="138.29 154.61 138.29 160.42 197.7 162.96 197.7 157.24 231.68 128.45 262.74 159.42 262.74 165.58 310.94 167.42 310.94 164.03 270.1 159.97 231.6 121.26 190.43 156.52 138.29 154.61"/>
    <polygon class="cls-3" points="117.12 154.01 126.09 119.22 130.2 129.97 124.52 155.12 117.12 154.01"/>
    <rect class="cls-2" x="308.02" y="182.1" width="3.87" height="41.03"/>
    <polygon class="cls-1" points="147.78 123.07 201.63 71.39 194.07 62.35 199.62 56.63 243.6 63.27 247.38 106.99 241.46 113.44 231.68 105.51 211.71 123.71 147.78 123.07"/>
    <polygon class="cls-1" points="165.52 185.61 199.62 186.67 199.62 217.98 165.17 217.98 165.52 185.61"/>
    <polygon class="cls-1" points="217.6 187.13 217.6 222.42 243.6 222.14 243.1 188.32 217.6 187.13"/>
    <polygon class="cls-1" points="270.18 188.77 270.74 218.41 290.3 218.41 290.3 189.26 270.18 188.77"/>
    <polygon class="cls-1" points="225.24 144.64 225.24 162.52 235.68 162.96 235.68 145.13 225.24 144.64"/>
    <rect class="cls-3" x="159.41" y="177.45" width="5.75" height="50.25"/>
    <rect class="cls-3" x="213.05" y="179.44" width="4.55" height="46.9"/>
    <rect class="cls-3" x="265.09" y="180.44" width="5.09" height="45.9"/>
    <rect class="cls-3" x="307.44" y="182.1" width="4.45" height="41.89"/>
    <g>
      <path class="cls-5" d="M305.45,171.31v-2.02h6.96v-6.73l-33.17-32-39.29-3.85-8.09-7.96-8.07,6.38-9.49-.93,18.15-16.72,8.25,8.96,8.5-7.83-2.95-46.95h-.03s0-.03,0-.03l-46.55-6.78-8.5,7.83,8.25,8.95-50.78,46.14-24.1-2.36-7.41,33.58h-20.42l-5.52,38.63-.02,4.08,5.3.2v33.88l9.29,5.72,208.88-4.94v-44.74l8.15-.85v-5.81l-17.35-3.85ZM131.53,186.59v39.5h2.23v-39.47l1.72.03v-3.36l-7.09-30.99-2.02-.09,3.77-18.35,7.11,22.08v5.44l3.62.14v64.57h2.23v-64.49l55.7,2.13v-6.2l33.1-27.56,29.7,30.13v6.22l40.16,1.38v3.9l-155.58-6.57v9.99l9.21,3.41,3.29.1v48l-49.33,1.17v-41.45l22.19.34ZM231.6,123.69l2.59,2.55,35.96,36.73,38.56,2.22v.38h-4.02l-40.88-1.41v-4.99l-31.77-32.23-35.48,29.54v4.94l-57.09-2.18v-2.74l50.84,2.69,40.97-35.25.32-.25ZM160.89,178.6l3.34.11v47.69l-3.34.08v-47.88ZM198.84,187.69v29.66h-17.71v-30.21l17.71.55ZM178.91,217.34h-12.45v-30.67l12.45.39v30.28ZM166.46,219.57h34.61v-34.04l-34.61-1.08v-5.66l45.25,1.43v45.06l-45.25,1.07v-6.78ZM213.94,180.29l2.8.09v44.78l-2.8.07v-44.94ZM242.16,189.14v31.99l-10.49.15v-32.52l10.49.37ZM229.45,221.32l-10.49.15v-33.15l10.49.37v32.63ZM218.97,223.69l25.42-.36v-36.34l-25.42-.9v-5.65l44.99,1.43v42.17l-44.99,1.06v-1.41ZM266.18,181.94l2.8.09v41.89l-2.8.07v-42.05ZM289.67,190.53v26.81h-10.33v-27.13l10.33.32ZM277.11,217.34h-5.9v-27.39l5.9.18v27.2ZM271.21,219.57h20.68v-31.19l-20.68-.65v-5.63l29.09.92v40.16l-29.09.69v-4.3ZM302.53,183.09l3.9.12v39.82l-3.9.09v-40.03ZM155.81,176.22l-7.42-2.75v-1.43l6.99,2.59,155.57,5.43v1.08l-155.13-4.92ZM204.69,71.87l-8.26-8.97,4.47-4.12,41.84,6.1,2.65,42.2-4.47,4.12-8.25-8.96-23.31,21.48-55.72-5.46,51.06-46.39ZM126.66,123.07l2.09,6.49-4.63,22.56-3.83-.18,6.37-28.87ZM100.19,223.7v-35.37l-5.3-.2v-.12l3.96-27.7,4.5,25.85,3.76.06v41.54h-.34s-6.59-4.05-6.59-4.05ZM308.66,222.98v-39.69l2.28.07v39.57l-2.28.05Z"/>
      <path class="cls-5" d="M236.63,144.2l-12.67-.47v20.06l12.67.24v-19.83ZM226.19,146.04l3.18.12v15.51l-3.18-.06v-15.57ZM234.41,161.77l-2.81-.05v-15.47l2.81.1v15.42Z"/>
    </g>
  </g>
  <g>
    <path class="cls-5" d="M419.66,222.45l2.18-27.12-10.41-13.43-4.72-2.07c-1.39-.61-3.03-1.13-4.48-1.42l-1.65-.33-1.64.38c-2.89.68-8.2,2.18-10.74,2.95l-3.95,1.21-1.21,3.94c-.71,2.31-.7,4.69-.66,5.61l.16,3.82c-2.77,1.26-5.25,2.95-7.39,5-2.77-3.22-6.87-4.9-11.6-4.4-2.06.22-4.42.88-6.81,2.4-1.09-.37-2.54-.77-3.73-.94l-1.44-.2-1.41.33c-3.08.71-8.2,2.23-10.38,2.96l-.95.32c-2.89-1.14-6.21-1.6-9.81-1.22-4,.42-7.62,1.8-10.72,3.86l-.51-.91-4.41-.13c-2.29-.07-7.67.7-10.46,1.5l-4.37,1.25c-2.21-1.13-4.81-1.61-7.93-1.28-2.2.23-4.26.95-6.13,2.09-2.39-.82-5.1-1.13-8.01-.82-3.67.39-7.06,1.57-10.05,3.33-1.24-5.05-5.92-14.01-23.65-12.13l-21.34,2.26-1.01,5.79c-.07.42-.18,1.12-.28,1.97-.3-.28-.6-.57-.92-.84l-4.3-3.56-4.19,2.58-5.43-2.32c-3.48-1.49-8.74-2.04-14.09-1.47-13.25,1.4-22.42,10.26-21.32,20.61.11,1.08.36,2.14.73,3.14-.29.32-.55.66-.82.99-2.75-5.17-8.74-8.14-15.88-7.38-4.09.43-7.84,1.84-11.07,3.95l-.79-1.23-4.41.12c-2.59.07-6.87.61-10.06,1.49l-3.03.84c-1.54-.56-2.87-.89-3.97-1.13l-1.78-.39-1.77.43c-2.79.69-7.83,2.2-9.95,2.89h-.02c-2.79-1.01-5.95-1.4-9.36-1.04-5.05.53-9.52,2.58-13.06,5.65l-1.03-.49c-2.13-1.54-4.65-2.46-7.43-2.64l-.91-.18c.19-1.85.27-3.49.29-4.47l.06-4.98s-8.42-3.51-9.2-3.67l-1.65-.33-1.64.38c-2.89.68-8.2,2.18-10.74,2.95l-4.12,1.27-.04-.13-5.66-.17c-1.89-.06-7.39.5-9.29,1.01l-2.92.78-1.63,2.55c-5.29,8.28-12.31,22.29-17.33,34.47-.33.13-.64.27-.93.41l-3.48,1.67-.78,3.78c-.43,2.08-.49,4.52-.4,6.11l.43,8.2,10.41,13.43,52.41-5.54c2.54.41,5.23.49,7.89.21,6.28-.66,11.75-3.32,15.88-7.26,3.68,3.14,8.75,4.65,14.65,4.03,5.53-.58,10.35-2.97,14.04-6.51l1.06.7c1.23.81,2.63,1.55,4.05,2.15l2.71,1,.34.12,1.84-.24c5.58-.72,10.96-3.75,15.33-8.05,3.59,3.84,8.9,5.72,15.27,5.05,7.41-.78,14.04-5.35,17.68-11.94,4.35,5.28,12.09,8.73,23.47,7.53,13.13-1.39,20.6-7.42,23.51-14.49-.06,1.22-.03,2.41.07,3.29l.71,6.74,6.77.23c4.57.16,15.06-.82,17.62-1.09,9.21-.97,15.22-3.54,19.14-6.7,3.48,2.77,8.15,4.05,13.58,3.47.52-.06,1.04-.13,1.56-.22-.25,1.22-.42,2.39-.5,3.31l-.42,5.19,4.63,2.37c3.11,1.59,7.4,2.29,11.48,1.86,4.92-.52,8.67-2.3,11.74-4.64,0,0,4.45-4.1,5.96-5.93,2.53-2.99,4.81-6.54,6.75-10.34,3.47,2.22,7.88,3.22,12.87,2.69,2.94-.31,5.67-1.15,8.15-2.38v.47s24.25-2.56,24.25-2.56v-.64c2.04.87,4.42,1.21,7.04.94,2.92-.31,5.73-1.39,8.24-3.09,2.42,1.18,5.21,1.67,8.17,1.36,1.85-.2,4.39-.84,7-2.65,2.06,1.01,4.52,1.43,7.24,1.15,8.53-.9,15.82-8.49,17.34-18.04l.78-4.89s-6.37-4.09-7.32-4.5Z"/>
    <g>
      <path class="cls-2" d="M74.41,234.02c-3.26.34-6.71,3.25-9,10.03l-.29.03c.67-2.96,1.08-5.09,1.37-7.78l1.05-10.28c.21-1.81.32-3.56.33-4.54-.79-.38-1.93-.72-2.87-.91-2.71.63-7.93,2.11-10.22,2.81-.2.83-.36,2.06-.26,2.98.7.1,2.27.16,4.94.23l-2.78,26.77c-.58,1.78-.93,3.72-1.12,5.38l-1.62-.17c-1.53-.3-1.93-.72-2.24-2.02l-9.27-31.85c-1.28-.04-5.96.46-7.03.74-5.51,8.62-13.08,23.93-17.99,36.47-1.18.36-2.68.86-3.45,1.23-.27,1.3-.31,3.04-.26,4.13l15.03-1.59c.21-1.29.31-3.04.2-4.13l-2.56-.19c-1.22-.1-1.59-.29-1.65-.81-.04-.4.02-.93.55-2.49l1.53-4.15c1.88-.26,4.34-.52,6.74-.77,2.29-.24,4.92-.46,6.93-.62l1.69,6.64c-1.9.61-3.52,1.12-4.47,1.46-.27,1.3-.31,3.04-.2,4.13l17.89-1.89c.08-.47.13-1,.17-1.54,2.22,1.06,5.93,1.94,10.28,1.48,9.72-1.03,18.04-9.25,16.86-20.4-.59-5.6-3.77-8.85-8.28-8.37ZM33.33,248.37c-1.43.15-2.97.31-4.41.41,2.31-5.45,4.52-9.73,6.64-13.71l.34-.04,3.3,12.66c-1.71.24-3.77.46-5.88.68ZM69.88,257.85c-.39.1-.74.14-1.14.18-1.66.18-3.24,0-4.73-.48l.31-2c1.45-9.81,5.13-14.88,7.42-15.12,1.43-.15,2.09,1.17,2.34,3.51.47,4.46-1.02,10.57-4.19,13.91Z"/>
      <path class="cls-2" d="M98.65,231.46c-9.37.99-15.43,9.32-14.43,18.81.71,6.69,5.39,10.01,12.14,9.29,9.37-.99,15.49-9.27,14.49-18.76-.71-6.69-5.46-10.06-12.2-9.35ZM99.44,254.26c-.6.29-1.11.41-1.57.46-2.74.29-4.62-1.59-5.1-6.11-.44-4.12.36-8.59,2.79-11.86.61-.24,1.12-.35,1.58-.4,2.8-.3,4.61,1.54,5.1,6.17.42,4-.37,8.54-2.8,11.74Z"/>
      <path class="cls-2" d="M137.98,228.4c-2.25.06-5.84.56-8.2,1.21.45,2.03,1.31,5.29,2.19,8.09-.91,6.17-4.16,10.9-7.87,13.61,0-4.45-.37-11.12-1.13-16.12-.35-2.8-.67-4.15-.86-4.88-1.08-.41-2.03-.65-3.1-.89-2.48.61-7.3,2.04-9.37,2.73-.2.83-.31,2-.26,2.98,1.3.27,3.05.43,4.97.51.22.96.38,1.93.54,2.89.82,5.58,1.49,11.87,1.68,16.47,1.06.7,2.4,1.36,3.66,1.81,10.27-1.32,19.79-14.58,18.73-24.58-.18-1.72-.5-3.07-.98-3.83Z"/>
      <path class="cls-2" d="M152.92,247.8c-3.2.34-4.75-1.23-5.29-4.64,10.66-3.04,16.64-6.62,16.06-12.16-.41-3.89-4.04-5.99-8.85-5.48-8.98.95-16.39,9.02-15.35,18.79.72,6.8,4.78,10.19,11.52,9.48,5.49-.58,10.57-4.41,12.69-10.13-.76-.61-1.94-1.36-2.84-1.67-1.82,3.6-4.91,5.49-7.94,5.81ZM150.88,230.67c.67-.24,1.29-.37,1.92-.43,2.4-.25,3.64,1.06,3.86,3.12.09.86.05,1.56-.11,2.27-2.32,1-5.53,1.86-9.04,2.57.44-3.51,1.97-5.99,3.37-7.52Z"/>
    </g>
    <path class="cls-1" d="M218.99,219.37c.41,3.83-1.44,6.11-4.61,7.83-1.7.87-3.82,1.62-6,2.25.88,1.24,1.52,2.9,1.71,4.73.78,7.37-5.41,13.87-17.93,15.19-12.35,1.31-18.33-3.9-19.02-10.42-.58-5.49,2.73-10.81,9.2-13.58-2.63-.82-4.35-2.89-4.59-5.18-.68-6.4,6.39-11.2,14.39-12.04,4.17-.44,8.15,0,10.21.89-.28,1.76-1.47,5.19-2.41,6.73-2.89-1.66-6.72-2.87-10.44-2.48l-.63.07c-1.93,1.42-3.55,3.56-3.28,6.13.16,1.54.98,2.67,2.26,3.29,1.75-.42,3.57-.67,5.34-.85-.01,1.5-.38,4.09-.87,5.47-2.14,0-4.18-.14-5.88-.36-2.77,2.26-4.26,5.65-3.88,9.2.57,5.37,5.15,8.76,12.81,7.95,2.92-.31,5.59-1.23,7.89-2.51,1.21-2.73,1.72-6.14,1.4-9.17-.08-.74-.21-1.42-.33-1.99-2.59.62-5.02,1.17-6.81,1.76-1.01.28-1.84.6-2.5.96,1.45,1.18,3.03,1.88,4.84,2.61-.35,1.65-1.24,3.54-2.04,4.78-3.25-1.22-6.12-4.32-6.4-6.95-.35-3.32,1.24-5.22,3.76-6.53,4.65-2.46,11.95-3.4,16.91-5.2,1.17-.41,2.11-.86,2.91-1.41-1.26-2.06-3.09-4.07-4.92-5.49,1-1.43,3.03-3.09,4.27-3.86,2.79,2.31,4.35,5.61,4.62,8.18Z"/>
    <g>
      <path class="cls-2" d="M259.15,211.07c-.57-5.37-5.28-8.4-15.46-7.33l-15.49,1.64c-.22,1.24-.38,2.93-.31,4.2.53.12,2.06.36,3.76.58.02,1.85-.1,3.42-.34,6.05l-2.32,22.38c-.09.82-.24,1.01-.86,1.19l-3.63,1.19c-.24,1.01-.31,3.1-.2,4.13,3.71.13,13.28-.71,16.54-1.05,15.03-1.59,19.82-7.76,19.04-15.13-.38-3.6-2.53-6.96-6.62-7.97,4.27-2.3,6.35-5.53,5.89-9.87ZM249.52,236.95c-1.48.74-3.5,1.35-6.24,1.64-1.77.19-3.44.31-5.36.16.05-2.26.18-3.78.43-6.35l.68-6.72c1.19-.24,2.33-.42,3.13-.5,5.49-.58,8.09,1.05,8.5,4.94.3,2.8-.17,4.99-1.13,6.82ZM247.51,219.64c-1.53.34-2.95.54-4.09.67-1.03.11-2.41.2-3.91.18l1.32-11.58,2-.21c4.34-.46,6.74.9,7.13,4.56.25,2.4-.6,4.75-2.45,6.39Z"/>
      <path class="cls-2" d="M286.25,230.69c-.76-.61-1.94-1.36-2.84-1.67-1.82,3.6-4.91,5.49-7.94,5.81-3.2.34-4.75-1.23-5.29-4.64,10.66-3.04,16.64-6.62,16.06-12.16-.41-3.89-4.04-5.99-8.85-5.48-8.98.95-16.39,9.02-15.35,18.79.72,6.8,4.78,10.19,11.52,9.48,5.49-.58,10.57-4.41,12.69-10.13ZM273.44,217.71c.67-.24,1.29-.37,1.92-.43,2.4-.25,3.64,1.06,3.86,3.12.09.86.05,1.56-.11,2.27-2.32,1-5.53,1.86-9.03,2.57.44-3.51,1.97-5.99,3.37-7.52Z"/>
      <path class="cls-2" d="M329.93,207c-9.38.99-15.43,9.32-14.43,18.81.71,6.69,5.39,10.01,12.14,9.29,9.37-.99,15.49-9.27,14.49-18.76-.71-6.69-5.46-10.06-12.2-9.35ZM330.72,229.81c-.6.29-1.11.41-1.57.46-2.74.29-4.62-1.59-5.1-6.11-.44-4.12.36-8.59,2.79-11.86.61-.24,1.12-.35,1.58-.4,2.8-.3,4.61,1.53,5.1,6.17.42,4-.37,8.54-2.81,11.74Z"/>
      <path class="cls-2" d="M405.2,214.76c-1.24,3.6-2.88,6.09-4.85,6.58-.15-.91-.02-1.85.11-3.36l2.87-27.47c.16-1.81.32-3.56.33-4.54-.85-.37-1.93-.72-2.87-.91-2.71.63-7.93,2.11-10.22,2.81-.26.84-.36,2.06-.32,2.98.76.09,2.27.16,4.94.23l-.87,9.23c-.75.02-1.5.04-2.3.13-8.93.94-16.65,8.01-16.94,17.8-1.24,3.59-3.17,5.83-5.14,6.33-.19-.73-.14-1.83.11-3.31l.85-6.68c.26-1.93.31-3.62.17-4.93-.53-4.97-3.42-6.63-6.62-6.29-3.66.39-7.65,3.64-10.63,12.11l-.4.04c.52-3.81,1-8.03,1.2-10.01-.72-.27-1.91-.61-2.62-.71-2.77.64-7.64,2.08-9.65,2.76-.32.84-.42,2.07-.32,2.98.7.1,2.27.16,4.94.23-.45,3.92-.9,8.48-1.24,12.91-.79,2.91-1.42,6.28-1.4,8.64l8.8-.93c.01-1.5.09-2.96.28-5,1.05-9.71,5.46-16.18,8.37-15.97.61.34.98,1.05,1.09,2.14.09.86.03,1.96-.16,3.37l-.99,7.56c-.15,1.29-.2,2.45-.11,3.36.33,3.14,2.15,4.45,5.46,4.1,3.58-.38,6.89-2.9,8.91-6.5,1.33,3.38,4,5.13,7.5,4.76,3.32-.35,6.81-3.38,9.08-10.38l.23-.02c-.1,1.8-.25,3.67-.13,4.81.36,3.43,2.31,4.38,5.06,4.09,4.8-.51,9.49-5.4,10.46-11.51-.81-.55-2.08-1.11-2.98-1.42ZM393.53,207.67c-1.45,9.81-5.13,14.94-7.36,15.17-1.49.16-2.15-1.16-2.4-3.56-.47-4.4,1.03-10.51,4.14-13.85.39-.1.79-.14,1.19-.18,1.66-.18,3.18.01,4.68.49l-.26,1.93Z"/>
      <path class="cls-2" d="M313.24,209.86c-1.28-.04-5.84.56-8.08,1.2.41,2.27,1.46,6.15,2.49,9.33.05,4.27-.68,8.91-2.78,13.65-4.73-17.42-7.27-23.39-13.33-22.75-2.12.22-3.85,1.37-5.15,2.99,4.23,4.05,10.92,19.75,13.41,26.95l-.92,1.14c-1.57,2.07-3.37,3.65-5.93,5.19-3.26-.23-6.71-1.14-8.21-1.62-.66,1.46-1.38,4.48-1.53,6.35,1.59.81,4.36,1.33,7.1,1.04,5.37-.57,8.79-3.3,12.58-7.86,7.86-9.27,12.23-23.72,11.38-31.78-.16-1.54-.61-3.06-1.04-3.82Z"/>
    </g>
    <g>
      <polygon class="cls-3" points="361.34 244.07 361.37 240.68 356.78 241.17 356.81 244.55 361.34 244.07"/>
      <path class="cls-3" d="M331.28,246.43c1.64,1.05,3.88,1.46,6.46,1.18,1.65-.17,3.27-.65,4.8-1.4l9.08-4.49-15.73,1.66c-2.12.87-4.35,1.45-6.67,1.74l2.05,1.31Z"/>
      <path class="cls-3" d="M296.54,262.34l-.53,2.62c-.04.19-.07.38-.11.56,1.33.34,3.01.47,4.53.32,2.48-.26,4.47-1.01,6.42-2.41,2.06-1.91,4.14-3.97,4.69-4.63,1.98-2.33,3.89-5.27,5.54-8.5l2.91-5.7c-1.21-.32-2.37-.75-3.47-1.28-1.79,3.22-3.8,6.16-6,8.76-3.31,3.97-7.53,8.23-13.96,10.28Z"/>
      <path class="cls-3" d="M376.34,238.21c-2.17,1.31-4.51,2.2-6.91,2.62l5.67,2.42c.49.21,1.26.28,2.08.19,1.24-.13,2.51-.62,3.68-1.42l4.09-2.79c-.15.02-.29.04-.42.05-2.87.29-5.67-.07-8.2-1.07Z"/>
      <path class="cls-3" d="M400.78,237.44l5.24,2.58c.19.09.74.3,1.8.18,3.6-.38,6.99-3.85,8.24-8.18-.26-.16-.47-.28-.63-.38l-3.16-1.35c-3.13,3.63-7.2,6.19-11.48,7.15Z"/>
      <path class="cls-3" d="M391.49,236.92c-1.93,1.16-3.79,1.78-5.33,2.1l4.66,2.27c.78.38,1.71.51,2.78.41.55-.06,1.41-.27,2.36-.93l4.78-3.33c-.65.14-1.31.25-1.97.32-2.66.28-5.1,0-7.28-.85Z"/>
      <path class="cls-3" d="M236.88,254.59l-.14,3c4.27-.12,11.39-.74,14.19-1.03,6.35-.67,11.04-2.2,13.94-4.55l1.9-1.53c-2.44-.58-4.41-1.53-5.96-2.54-4.65,3.31-10.87,5.34-18.92,6.2-.95.1-2.83.28-5.01.46Z"/>
      <path class="cls-3" d="M58.71,272.69l-39.99,4.23,2.43,3.13,48.22-5.1,1.31.21c1.69.27,3.51.32,5.26.13,3.88-.41,7.36-1.99,10.07-4.57l1.99-1.89c-1.94-.59-3.74-1.46-5.37-2.58-4.42,3.68-9.92,6-15.74,6.62-2.76.28-5.5.23-8.17-.18Z"/>
      <path class="cls-3" d="M98.33,269.53l.98.83c1.68,1.43,4.15,2.03,7.15,1.71,3.12-.33,5.96-1.64,8.2-3.8l2.06-1.98-.51-.19c-1.71-.67-3.33-1.48-4.76-2.4-3.72,3.14-8.2,5.13-13.12,5.82Z"/>
      <path class="cls-3" d="M153.51,263.66l.64.68c1.88,2.02,4.82,2.17,6.96,1.95,4.15-.44,7.9-3,10.03-6.87h0s2-3.62,2-3.62c-.04-.03-.09-.05-.13-.08-1.15-.72-2.21-1.53-3.18-2.41-3.89,5.47-9.8,9.25-16.32,10.35Z"/>
      <path class="cls-3" d="M125.34,266.04l2.74,1.81c.67.44,1.49.88,2.31,1.23l.43.16c3.01-.54,6.22-2.37,9.1-5.2l1.51-1.49c-1.99-.8-3.57-1.84-4.76-2.82-.03-.03-.07-.06-.1-.09-3.46,3.03-7.3,5.21-11.23,6.39Z"/>
      <path class="cls-3" d="M212.76,251.63c-4.74,4.26-11.5,6.97-19.55,7.82-1.27.13-2.51.22-3.72.25,2.94,1.98,7.36,2.75,12.78,2.18,7.11-.75,12.2-3.17,14.58-6.89l-1.51-.05-.57-5.35c-.62.71-1.29,1.39-2.02,2.04Z"/>
    </g>
  </g>
  <path class="cls-6" d="M383.93,244.55c-39.18,20.95-115.99,23.84-184.04,26.39-63.3,2.38-119.7,4.51-156.45,18.46v41.4c26.48-17.08,93.13-19.59,157.7-22.02,67.04-2.52,136.02-5.13,182.79-23.2v-41.04Z"/>
  <g>
    <path class="cls-2" d="M73.66,307.18c.04.31.02,1.05-.02,1.4l-6.49,1.81c-.07-.33-.07-1.04-.04-1.36l1.39-.69c.27-.17.33-.21.33-.6v-4.88c-.93.24-2.3.59-3.75,1-1.39.39-2.74.79-3.62,1.03v3.12c0,.83.02,1.55.09,2.15.55-.04,1.15-.07,1.63-.07.02.31.02,1.05-.04,1.41l-6.49,1.81c-.07-.33-.07-1.04-.04-1.36l1.46-.7c.31-.16.38-.22.38-.61v-9.4c0-.83-.02-1.53-.11-2.15-.6.05-1.24.11-1.72.09-.02-.31-.02-1.03.04-1.41l6.49-1.81c.07.35.07,1.04.04,1.36l-1.39.69c-.29.17-.33.23-.33.6v4.4c.88-.25,2.23-.6,3.62-.99,1.46-.41,2.83-.81,3.75-1.09v-2.59c0-.83-.02-1.55-.09-2.15-.55.04-1.15.09-1.63.07-.02-.31-.02-1.03.04-1.41l6.49-1.81c.04.35.07,1.04.02,1.37l-1.46.7c-.29.17-.35.24-.35.6v9.4c0,.83.02,1.55.09,2.15.6-.05,1.24-.09,1.72-.09Z"/>
    <path class="cls-2" d="M94.37,297.12c0,5.3-3.19,8.88-8.34,9.75-4.61.77-7.98-1.27-7.98-6.73s3.19-8.86,8.32-9.72c4.61-.78,8,1.24,8,6.7ZM91.14,298.05c0-4.36-2.31-6.26-5.6-5.71-.93.16-1.74.45-2.44.94-1.17,1.41-1.81,3.47-1.81,5.92,0,4.38,2.31,6.26,5.6,5.71.9-.15,1.74-.48,2.46-.97,1.15-1.39,1.79-3.46,1.79-5.89Z"/>
    <path class="cls-2" d="M119.61,302.19l-6.74.73c-.05-.34-.07-1.07-.02-1.4l1.37-.4c.36-.13.39-.18.39-.61,0-1.51-.16-6.4-.39-9.7h-.11s-4.4,9.68-4.4,9.68c-.48.14-1.85.29-2.44.26l-4.28-8.73h-.09c-.14,2.66-.18,7.64-.14,10.18.8.07,1.5.14,1.87.21.05.31.02,1.03-.02,1.4l-6.15.66c-.05-.34-.07-1.05-.02-1.37l1.37-.4c.43-.16.46-.19.5-.54.23-1.86.5-7.71.59-11.71-.71-.04-1.44-.12-1.82-.19-.02-.32-.02-1.03.02-1.4l5.6-.6,4.37,9.04,4.49-10,5.35-.58c.05.36.05,1.07.02,1.4-.39.16-1.12.37-1.8.58.21,3.37.5,8.5.73,11.91l1.78.17c.02.32.02,1.05-.02,1.4Z"/>
    <path class="cls-2" d="M136.79,300.94l-12.75.95c-.07-.34-.07-1.05-.05-1.37l1.51-.41c.32-.09.39-.14.39-.53v-9.4c0-.82-.02-1.53-.11-2.17-.62-.07-1.28-.13-1.78-.26-.02-.32-.02-1.03.05-1.4l11.77-.88c.09,1.05.05,3.11-.07,4.2-.37.1-1.03.17-1.44.15-.23-.67-.5-1.64-.64-2.36-1.71.04-3.06.09-4.64.19v5l.75-.06c1.65-.12,2.99-.2,3.93-.22.02.32,0,1.26-.05,1.56-1.23.16-2.38.24-3.89.36l-.75.06v3.21c0,.78,0,1.63.05,2.22,1.65-.12,3.57-.31,5.65-.67.18-.86.46-1.98.66-2.59.43-.06,1.07-.06,1.46-.04.07,1.05.05,3-.05,4.47Z"/>
    <path class="cls-2" d="M162.35,295.16c0,2.89-2.11,4.9-6.07,5.1-2.18.11-4.28-.29-5.52-.91-.02-1.37.09-3.49.21-4.37.39-.09,1.05-.17,1.6-.17.16.73.32,1.73.48,2.82,1.01.48,2.36.66,3.82.59.82-.04,1.56-.26,2.11-.59.3-.43.41-.91.41-1.51,0-1.67-1.08-2.35-3.89-3.29-2.15-.69-4.24-1.71-4.24-4.46s2.06-4.34,5.7-4.53c1.72-.09,3.37.08,4.31.38,0,.96-.09,2.73-.23,3.93-.34.09-1.12.15-1.58.13-.18-.66-.39-1.61-.53-2.36-.64-.17-1.56-.29-2.38-.24-.89.04-1.6.26-2.06.49-.21.47-.3.84-.3,1.37,0,1.54,1.24,2.02,3.32,2.7,3.07,1.01,4.83,2.3,4.83,4.94Z"/>
    <path class="cls-2" d="M183.67,290.68c0,5.3-3.23,8.48-8.45,8.7-4.67.2-8.08-2.28-8.08-7.73s3.23-8.45,8.43-8.67c4.67-.19,8.11,2.25,8.11,7.71ZM180.39,291.21c0-4.36-2.34-6.55-5.68-6.41-.94.04-1.76.23-2.47.63-1.19,1.27-1.83,3.24-1.83,5.69,0,4.38,2.34,6.55,5.68,6.41.92-.04,1.76-.26,2.5-.65,1.17-1.24,1.81-3.24,1.81-5.67Z"/>
    <path class="cls-2" d="M201.03,297.93l-12.89.49c-.07-.34-.07-1.05-.05-1.37l1.51-.36c.32-.08.39-.13.39-.52v-9.4c0-.83-.02-1.54-.11-2.17-.62-.09-1.28-.18-1.79-.32-.02-.32-.02-1.03.05-1.4l7.03-.26c.05.36.05,1.05.02,1.37l-1.72.36c-.3.08-.34.15-.34.52v9.38c0,.83.02,1.56.09,2.17,1.51-.1,3.66-.25,5.63-.51.21-1.11.55-2.56.69-3.12.46-.06,1.14-.04,1.56.03.07,1.23.09,3.41-.07,5.11Z"/>
    <path class="cls-2" d="M221.97,281.59c.05.37.07,1.05.02,1.37l-1.49.36c-.32.1-.37.15-.37.52v6.95c0,4.77-1.76,6.92-6.62,7.11-4.81.19-6.98-1.61-6.98-6.42v-5.32c0-.76-.02-1.56-.07-2.18-.57-.07-1.4-.22-1.81-.32-.05-.32-.02-1.03.02-1.4l6.82-.26c.05.36.05,1.05.02,1.37l-1.49.36c-.32.1-.37.15-.37.52v6.63c0,3.9,1.28,5.31,4.83,5.18,1.1-.04,1.92-.26,2.54-.6.69-1.01,1.05-2.22,1.05-4.53v-5.2c0-.78-.02-1.6-.07-2.2-.55-.05-1.51-.19-1.88-.29-.05-.32-.02-1.03.02-1.4l5.79-.23Z"/>
    <path class="cls-2" d="M240.56,280.79c.14,1.41.14,3.43.02,4.65-.39.09-1.17.17-1.58.14-.18-.63-.46-1.84-.64-2.79-.8-.01-1.83-.01-3.41.03v9.79c0,.83.02,1.56.09,2.15.73.1,1.56.21,2.08.32.02.32.02,1.05-.02,1.4l-7.44.33c-.05-.34-.07-1.05-.02-1.37l1.81-.38c.32-.08.34-.13.34-.52v-9.4c0-.83-.02-1.53-.07-2.17-1.49.09-2.54.18-3.3.26-.21.99-.48,2.2-.66,2.85-.39.06-1.17.05-1.56,0-.11-1.21-.11-3.23.02-4.66l14.34-.63Z"/>
    <path class="cls-2" d="M251.81,295.76l-6.82.35c-.05-.34-.05-1.05-.05-1.37l1.51-.37c.32-.09.39-.13.39-.52v-9.4c0-.82-.02-1.53-.11-2.17-.62-.08-1.28-.16-1.79-.3-.02-.32-.02-1.03.05-1.4l6.82-.35c.05.36.05,1.05.02,1.37l-1.51.37c-.3.11-.34.16-.34.52v9.4c0,.83.02,1.56.09,2.17.6.08,1.26.19,1.76.3.05.32.02,1.05-.02,1.4Z"/>
    <path class="cls-2" d="M272.8,286.6c0,5.3-3.23,8.55-8.44,8.87-4.67.29-8.08-2.11-8.08-7.57s3.23-8.52,8.42-8.84c4.67-.29,8.1,2.09,8.1,7.54ZM269.53,287.2c0-4.36-2.33-6.5-5.67-6.3-.94.06-1.76.27-2.47.68-1.19,1.29-1.83,3.28-1.83,5.73,0,4.38,2.33,6.5,5.67,6.3.91-.06,1.76-.29,2.49-.7,1.17-1.27,1.81-3.28,1.81-5.71Z"/>
    <path class="cls-2" d="M294.64,277.2c.05.36.05,1.05.02,1.37l-1.46.42c-.32.1-.37.15-.39.61-.09,1.61-.16,5.7-.18,10.15v3.12c-.87.16-1.65.23-2.42.29l-8.89-11.02h-.11v6.2c.02,1.4.07,2.56.14,3.59.89.09,1.85.21,2.49.32.02.32.02,1.05-.02,1.4l-6.54.55c-.07-.34-.07-1.05-.05-1.37l1.46-.4c.32-.1.37-.17.39-.6.07-1.15.18-6,.18-8.93,0-.83-.02-1.58-.02-2.61-.89-.09-1.53-.15-1.87-.23-.02-.32,0-1.03.02-1.4l4.75-.4,8.48,10.52h.11c0-1.71-.02-3.61-.05-5.35-.02-1.49-.07-2.88-.14-3.95-.8-.12-1.53-.22-1.99-.36-.05-.32-.02-1.03.02-1.4l6.06-.51Z"/>
    <path class="cls-2" d="M310.46,286.69c0,2.89-2.1,5.02-6.04,5.45-2.16.24-4.26-.04-5.49-.59-.02-1.37.09-3.5.21-4.38.39-.11,1.05-.23,1.59-.27.16.72.32,1.71.48,2.79,1,.42,2.35.52,3.81.36.82-.09,1.55-.35,2.1-.71.3-.44.41-.94.41-1.54,0-1.67-1.07-2.29-3.87-3.06-2.14-.57-4.21-1.46-4.21-4.21s2.05-4.47,5.67-4.86c1.71-.19,3.35-.11,4.28.13,0,.96-.09,2.74-.23,3.94-.34.11-1.12.21-1.57.22-.18-.65-.39-1.59-.52-2.33-.64-.14-1.55-.2-2.37-.11-.89.1-1.6.36-2.05.61-.21.48-.3.86-.3,1.39,0,1.54,1.23,1.95,3.3,2.5,3.05.83,4.81,2.02,4.81,4.65Z"/>
    <path class="cls-2" d="M337.06,287.18l-12.75,2.05c-.07-.33-.07-1.04-.04-1.37l1.49-.54c.32-.12.39-.18.39-.57v-9.4c0-.83-.02-1.53-.11-2.16-.61-.02-1.27-.03-1.77-.11-.02-.32-.02-1.03.04-1.41l6.95-1.12c.05.36.05,1.05.02,1.37l-1.7.57c-.29.12-.34.19-.34.56v9.38c0,.83.02,1.56.09,2.16,1.49-.29,3.62-.7,5.57-1.19.2-1.13.54-2.63.68-3.2.45-.12,1.13-.18,1.54-.16.07,1.23.09,3.4-.07,5.12Z"/>
    <path class="cls-2" d="M354.07,283.75l-12.63,2.64c-.07-.33-.07-1.04-.04-1.37l1.48-.61c.31-.13.38-.19.38-.58v-9.4c0-.82-.02-1.53-.11-2.15-.6.01-1.26.03-1.75-.02-.02-.32-.02-1.03.04-1.41l6.89-1.44c.04.36.04,1.04.02,1.37l-1.68.65c-.29.13-.34.21-.34.57v9.38c0,.83.02,1.55.09,2.16,1.48-.36,3.59-.87,5.52-1.45.2-1.14.54-2.66.67-3.23.45-.14,1.12-.23,1.53-.23.07,1.22.09,3.4-.07,5.13Z"/>
    <path class="cls-2" d="M371.73,277.73c-1.26,1.31-3.11,2.63-5.7,3.34-4.48,1.24-7.53-.53-7.53-5.85,0-5.62,3.05-9.3,8.33-10.76,1.66-.46,3.25-.62,4.44-.56.04.86.02,3.18-.13,4.51-.33.14-1.13.4-1.48.46-.22-.65-.49-1.77-.69-2.79-.88.01-1.81.16-2.67.4-1.15.32-2.23.85-3.07,1.42-.93,1.4-1.57,3.3-1.57,5.77,0,4.33,2.3,5.78,5.67,4.85,1.39-.39,2.83-1.01,4-1.89.15.26.35.75.4,1.1Z"/>
  </g>
  <path class="cls-5" d="M44.96,331.93c-.66,0-1.32-.17-1.91-.52-1.19-.69-1.9-1.93-1.9-3.31v-40.27l1.48-.56c37.14-14.1,92.77-16.19,157.18-18.61,66.52-2.5,141.92-5.33,181.2-25.17,1.13-.57,2.44-.52,3.51.14,1.07.66,1.71,1.8,1.71,3.06v40.47l-1.47.57c-47.18,18.23-116.5,20.83-183.53,23.35-62.42,2.35-126.97,4.77-154.38,20.35-.59.34-1.24.5-1.88.5ZM45.73,291v35.81c28.96-15.56,93.18-17.97,155.32-20.31,65.96-2.48,134.15-5.04,180.59-22.49v-35.72c-40.53,19.64-115.46,22.46-181.66,24.95-63.14,2.37-117.79,4.43-154.24,17.76Z"/>
  <polygon class="cls-3" points="413.63 219.26 416.49 195.78 413.51 193.43 410.53 217.61 413.63 219.26"/>
</svg>